<mxfile host="app.diagrams.net" modified="2024-02-17T08:36:36.320Z" agent="Mozilla/5.0 (iPhone; CPU iPhone OS 16_1 like Mac OS X) AppleWebKit/605.1.15 (KHTML, like Gecko) EdgiOS/121.0.2277.107 Version/16.0 Mobile/15E148 Safari/604.1" etag="zsJYSukJZB9ASP4tI7q4" version="23.1.5" type="github">
  <diagram name="第 1 页" id="RIqS7frUhOqmDlwrStJZ">
    <mxGraphModel dx="396" dy="630" grid="1" gridSize="10" guides="1" tooltips="1" connect="1" arrows="1" fold="1" page="1" pageScale="1" pageWidth="827" pageHeight="1169" math="0" shadow="0">
      <root>
        <mxCell id="0" />
        <mxCell id="1" parent="0" />
      </root>
    </mxGraphModel>
  </diagram>
</mxfile>
